<svg width="1092" height="1202" viewBox="0 0 1092 1202" fill="none" xmlns="http://www.w3.org/2000/svg">
<rect y="2" width="1092" height="1200" rx="55" fill="#FCFEFF"/>
<path d="M0 55C0 24.6243 24.6243 0 55 0H1037C1067.38 0 1092 24.6243 1092 55V74H0V55Z" fill="#E0E0E0"/>
<rect x="133" y="15" width="898" height="45" rx="22.5" fill="#F9F9F9"/>
<rect x="83" y="163" width="948" height="76" rx="14" fill="#DCDCDC"/>
<rect x="83" y="269" width="316" height="813" rx="14" fill="#DCDCDC"/>
<rect x="421" y="269" width="610" height="813" rx="14" fill="#DCDCDC"/>
<path d="M689.06 205.892V202.148L704.54 193.472V197.288L692.624 203.876V204.164L704.54 210.716V214.568L689.06 205.892ZM714.03 195.668H713.706V215H710.178V189.872H715.362L722.742 209.204H723.066V189.872H726.594V215H721.41L714.03 195.668ZM746.884 215C745.756 215 744.904 214.712 744.328 214.136C743.776 213.56 743.44 212.804 743.32 211.868H743.14C742.78 212.996 742.12 213.872 741.16 214.496C740.224 215.12 739.024 215.432 737.56 215.432C735.664 215.432 734.152 214.94 733.024 213.956C731.896 212.948 731.332 211.568 731.332 209.816C731.332 208.016 731.992 206.648 733.312 205.712C734.656 204.752 736.708 204.272 739.468 204.272H743.032V202.832C743.032 200.312 741.7 199.052 739.036 199.052C737.836 199.052 736.864 199.292 736.12 199.772C735.376 200.228 734.752 200.84 734.248 201.608L731.908 199.7C732.436 198.692 733.324 197.828 734.572 197.108C735.82 196.364 737.428 195.992 739.396 195.992C741.748 195.992 743.596 196.556 744.94 197.684C746.284 198.812 746.956 200.444 746.956 202.58V211.904H749.296V215H746.884ZM738.676 212.552C739.948 212.552 740.992 212.264 741.808 211.688C742.624 211.112 743.032 210.368 743.032 209.456V206.756H739.54C736.708 206.756 735.292 207.608 735.292 209.312V210.032C735.292 210.872 735.592 211.508 736.192 211.94C736.792 212.348 737.62 212.552 738.676 212.552ZM759.146 215L752.486 196.424H756.554L759.11 204.272L761.522 211.724H761.738L764.15 204.272L766.706 196.424H770.63L763.97 215H759.146ZM784.296 193.04C783.288 193.04 782.58 192.836 782.172 192.428C781.788 192.02 781.596 191.516 781.596 190.916V190.16C781.596 189.56 781.788 189.056 782.172 188.648C782.58 188.24 783.276 188.036 784.26 188.036C785.268 188.036 785.964 188.24 786.348 188.648C786.756 189.056 786.96 189.56 786.96 190.16V190.916C786.96 191.516 786.756 192.02 786.348 192.428C785.964 192.836 785.28 193.04 784.296 193.04ZM775.98 211.832H782.316V199.592H775.98V196.424H786.24V211.832H792.18V215H775.98V211.832ZM814.45 217.016C814.45 218.936 813.646 220.352 812.038 221.264C810.43 222.176 807.982 222.632 804.694 222.632C803.086 222.632 801.73 222.524 800.626 222.308C799.546 222.116 798.658 221.828 797.962 221.444C797.29 221.06 796.798 220.592 796.486 220.04C796.198 219.488 796.054 218.864 796.054 218.168C796.054 217.16 796.33 216.368 796.882 215.792C797.458 215.24 798.262 214.832 799.294 214.568V214.208C798.67 213.968 798.166 213.632 797.782 213.2C797.422 212.768 797.242 212.204 797.242 211.508C797.242 210.596 797.554 209.912 798.178 209.456C798.802 208.976 799.606 208.616 800.59 208.376V208.196C799.462 207.668 798.586 206.924 797.962 205.964C797.338 205.004 797.026 203.852 797.026 202.508C797.026 201.524 797.206 200.636 797.566 199.844C797.926 199.028 798.43 198.344 799.078 197.792C799.75 197.216 800.542 196.772 801.454 196.46C802.39 196.148 803.434 195.992 804.586 195.992C805.882 195.992 807.046 196.196 808.078 196.604V195.992C808.078 195.272 808.282 194.672 808.69 194.192C809.098 193.712 809.722 193.472 810.562 193.472H813.946V196.568H809.626V197.432C810.442 197.984 811.066 198.692 811.498 199.556C811.93 200.396 812.146 201.38 812.146 202.508C812.146 203.492 811.966 204.392 811.606 205.208C811.246 206 810.73 206.684 810.058 207.26C809.41 207.812 808.618 208.244 807.682 208.556C806.77 208.844 805.738 208.988 804.586 208.988C803.77 208.988 803.002 208.916 802.282 208.772C801.85 208.892 801.418 209.096 800.986 209.384C800.554 209.672 800.338 210.068 800.338 210.572C800.338 211.148 800.614 211.508 801.166 211.652C801.718 211.796 802.402 211.868 803.218 211.868H807.394C809.89 211.868 811.69 212.348 812.794 213.308C813.898 214.244 814.45 215.48 814.45 217.016ZM810.778 217.268C810.778 216.644 810.526 216.14 810.022 215.756C809.518 215.396 808.606 215.216 807.286 215.216H800.842C799.93 215.648 799.474 216.344 799.474 217.304C799.474 218 799.762 218.6 800.338 219.104C800.938 219.608 801.922 219.86 803.29 219.86H806.206C807.694 219.86 808.822 219.632 809.59 219.176C810.382 218.744 810.778 218.108 810.778 217.268ZM804.586 206.288C805.858 206.288 806.794 205.988 807.394 205.388C807.994 204.788 808.294 203.984 808.294 202.976V202.004C808.294 200.996 807.994 200.192 807.394 199.592C806.794 198.992 805.858 198.692 804.586 198.692C803.314 198.692 802.378 198.992 801.778 199.592C801.178 200.192 800.878 200.996 800.878 202.004V202.976C800.878 203.984 801.178 204.788 801.778 205.388C802.378 205.988 803.314 206.288 804.586 206.288ZM833.228 215C832.1 215 831.248 214.712 830.672 214.136C830.12 213.56 829.784 212.804 829.664 211.868H829.484C829.124 212.996 828.464 213.872 827.504 214.496C826.568 215.12 825.368 215.432 823.904 215.432C822.008 215.432 820.496 214.94 819.368 213.956C818.24 212.948 817.676 211.568 817.676 209.816C817.676 208.016 818.336 206.648 819.656 205.712C821 204.752 823.052 204.272 825.812 204.272H829.376V202.832C829.376 200.312 828.044 199.052 825.38 199.052C824.18 199.052 823.208 199.292 822.464 199.772C821.72 200.228 821.096 200.84 820.592 201.608L818.252 199.7C818.78 198.692 819.668 197.828 820.916 197.108C822.164 196.364 823.772 195.992 825.74 195.992C828.092 195.992 829.94 196.556 831.284 197.684C832.628 198.812 833.3 200.444 833.3 202.58V211.904H835.64V215H833.228ZM825.02 212.552C826.292 212.552 827.336 212.264 828.152 211.688C828.968 211.112 829.376 210.368 829.376 209.456V206.756H825.884C823.052 206.756 821.636 207.608 821.636 209.312V210.032C821.636 210.872 821.936 211.508 822.536 211.94C823.136 212.348 823.964 212.552 825.02 212.552ZM849.018 215C847.386 215 846.186 214.568 845.418 213.704C844.65 212.816 844.266 211.676 844.266 210.284V199.592H838.542V196.424H842.61C843.306 196.424 843.798 196.292 844.086 196.028C844.374 195.74 844.518 195.236 844.518 194.516V189.872H848.19V196.424H856.11V199.592H848.19V211.832H856.11V215H849.018ZM870.64 193.04C869.632 193.04 868.924 192.836 868.516 192.428C868.132 192.02 867.939 191.516 867.939 190.916V190.16C867.939 189.56 868.132 189.056 868.516 188.648C868.924 188.24 869.62 188.036 870.604 188.036C871.612 188.036 872.308 188.24 872.692 188.648C873.1 189.056 873.304 189.56 873.304 190.16V190.916C873.304 191.516 873.1 192.02 872.692 192.428C872.308 192.836 871.624 193.04 870.64 193.04ZM862.324 211.832H868.66V199.592H862.324V196.424H872.584V211.832H878.523V215H862.324V211.832ZM891.073 215.432C889.705 215.432 888.469 215.204 887.365 214.748C886.285 214.292 885.361 213.644 884.593 212.804C883.849 211.964 883.273 210.944 882.865 209.744C882.457 208.544 882.253 207.2 882.253 205.712C882.253 204.224 882.457 202.88 882.865 201.68C883.273 200.48 883.849 199.46 884.593 198.62C885.361 197.78 886.285 197.132 887.365 196.676C888.469 196.22 889.705 195.992 891.073 195.992C892.441 195.992 893.665 196.22 894.745 196.676C895.849 197.132 896.773 197.78 897.517 198.62C898.285 199.46 898.873 200.48 899.281 201.68C899.689 202.88 899.893 204.224 899.893 205.712C899.893 207.2 899.689 208.544 899.281 209.744C898.873 210.944 898.285 211.964 897.517 212.804C896.773 213.644 895.849 214.292 894.745 214.748C893.665 215.204 892.441 215.432 891.073 215.432ZM891.073 212.336C892.513 212.336 893.653 211.904 894.493 211.04C895.357 210.152 895.789 208.844 895.789 207.116V204.308C895.789 202.58 895.357 201.284 894.493 200.42C893.653 199.532 892.513 199.088 891.073 199.088C889.633 199.088 888.481 199.532 887.617 200.42C886.777 201.284 886.357 202.58 886.357 204.308V207.116C886.357 208.844 886.777 210.152 887.617 211.04C888.481 211.904 889.633 212.336 891.073 212.336ZM904.883 215V196.424H908.807V199.592H908.987C909.179 199.112 909.419 198.656 909.707 198.224C910.019 197.768 910.391 197.384 910.823 197.072C911.255 196.736 911.759 196.472 912.335 196.28C912.911 196.088 913.583 195.992 914.351 195.992C916.223 195.992 917.735 196.604 918.887 197.828C920.039 199.052 920.615 200.792 920.615 203.048V215H916.691V203.624C916.691 200.672 915.407 199.196 912.839 199.196C912.335 199.196 911.843 199.268 911.363 199.412C910.883 199.532 910.451 199.724 910.067 199.988C909.683 200.252 909.371 200.588 909.131 200.996C908.915 201.404 908.807 201.872 908.807 202.4V215H904.883ZM948.019 219.968L960.151 187.64H963.643L951.511 219.968H948.019ZM969.677 210.752L981.593 204.164V203.876L969.677 197.324V193.472L985.157 202.148V205.892L969.677 214.568V210.752Z" fill="black"/>
<path d="M599.06 634.892V631.148L614.54 622.472V626.288L602.624 632.876V633.164L614.54 639.716V643.568L599.06 634.892ZM624.03 624.668H623.706V644H620.178V618.872H625.362L632.742 638.204H633.066V618.872H636.594V644H631.41L624.03 624.668ZM650.368 644.432C648.952 644.432 647.68 644.204 646.552 643.748C645.424 643.292 644.476 642.644 643.708 641.804C642.94 640.964 642.352 639.956 641.944 638.78C641.536 637.58 641.332 636.236 641.332 634.748C641.332 633.26 641.536 631.916 641.944 630.716C642.376 629.516 642.964 628.496 643.708 627.656C644.476 626.792 645.4 626.132 646.48 625.676C647.56 625.22 648.76 624.992 650.08 624.992C651.376 624.992 652.552 625.22 653.608 625.676C654.664 626.108 655.564 626.732 656.308 627.548C657.052 628.364 657.616 629.336 658 630.464C658.408 631.592 658.612 632.84 658.612 634.208V635.684H645.292V636.296C645.292 637.76 645.748 638.96 646.66 639.896C647.572 640.808 648.832 641.264 650.44 641.264C651.64 641.264 652.66 641.012 653.5 640.508C654.364 639.98 655.06 639.284 655.588 638.42L658.036 640.58C657.412 641.66 656.452 642.572 655.156 643.316C653.884 644.06 652.288 644.432 650.368 644.432ZM650.08 627.98C649.384 627.98 648.736 628.1 648.136 628.34C647.56 628.58 647.056 628.928 646.624 629.384C646.216 629.816 645.892 630.332 645.652 630.932C645.412 631.532 645.292 632.192 645.292 632.912V633.164H654.616V632.804C654.616 631.34 654.196 630.176 653.356 629.312C652.54 628.424 651.448 627.98 650.08 627.98ZM661.478 625.424H664.826L666.626 641.048H666.95L669.722 625.424H673.538L676.274 641.048H676.598L678.434 625.424H681.638L679.046 644H674.222L671.738 629.6H671.414L668.894 644H664.07L661.478 625.424ZM693.18 644.432C691.164 644.432 689.424 644.108 687.96 643.46C686.52 642.812 685.356 641.948 684.468 640.868L686.88 638.708C687.696 639.596 688.608 640.28 689.616 640.76C690.648 641.216 691.86 641.444 693.252 641.444C694.524 641.444 695.544 641.228 696.312 640.796C697.104 640.364 697.5 639.692 697.5 638.78C697.5 638.396 697.428 638.072 697.284 637.808C697.14 637.544 696.936 637.328 696.672 637.16C696.408 636.992 696.096 636.86 695.736 636.764C695.4 636.668 695.04 636.596 694.656 636.548L691.704 636.08C690.984 635.984 690.252 635.828 689.508 635.612C688.764 635.396 688.092 635.096 687.492 634.712C686.916 634.304 686.436 633.788 686.052 633.164C685.692 632.54 685.512 631.748 685.512 630.788C685.512 628.892 686.232 627.452 687.672 626.468C689.136 625.484 691.056 624.992 693.432 624.992C695.16 624.992 696.648 625.256 697.896 625.784C699.168 626.288 700.224 626.996 701.064 627.908L698.868 630.212C698.388 629.66 697.704 629.156 696.816 628.7C695.928 628.22 694.752 627.98 693.288 627.98C690.672 627.98 689.364 628.808 689.364 630.464C689.364 631.256 689.64 631.808 690.192 632.12C690.768 632.408 691.44 632.6 692.208 632.696L695.16 633.164C695.904 633.284 696.636 633.44 697.356 633.632C698.1 633.824 698.76 634.124 699.336 634.532C699.936 634.916 700.416 635.42 700.776 636.044C701.16 636.668 701.352 637.46 701.352 638.42C701.352 640.292 700.62 641.768 699.156 642.848C697.716 643.904 695.724 644.432 693.18 644.432ZM707.026 644V618.872H723.19V622.256H711.058V629.564H722.074V632.948H711.058V644H707.026ZM736.712 644.432C735.296 644.432 734.024 644.204 732.896 643.748C731.768 643.292 730.82 642.644 730.052 641.804C729.284 640.964 728.696 639.956 728.288 638.78C727.88 637.58 727.676 636.236 727.676 634.748C727.676 633.26 727.88 631.916 728.288 630.716C728.72 629.516 729.308 628.496 730.052 627.656C730.82 626.792 731.744 626.132 732.824 625.676C733.904 625.22 735.104 624.992 736.424 624.992C737.72 624.992 738.896 625.22 739.952 625.676C741.008 626.108 741.908 626.732 742.652 627.548C743.396 628.364 743.96 629.336 744.344 630.464C744.752 631.592 744.956 632.84 744.956 634.208V635.684H731.636V636.296C731.636 637.76 732.092 638.96 733.004 639.896C733.916 640.808 735.176 641.264 736.784 641.264C737.984 641.264 739.004 641.012 739.844 640.508C740.708 639.98 741.404 639.284 741.932 638.42L744.38 640.58C743.756 641.66 742.796 642.572 741.5 643.316C740.228 644.06 738.632 644.432 736.712 644.432ZM736.424 627.98C735.728 627.98 735.08 628.1 734.48 628.34C733.904 628.58 733.4 628.928 732.968 629.384C732.56 629.816 732.236 630.332 731.996 630.932C731.756 631.532 731.636 632.192 731.636 632.912V633.164H740.96V632.804C740.96 631.34 740.54 630.176 739.7 629.312C738.884 628.424 737.792 627.98 736.424 627.98ZM758.298 644.432C756.882 644.432 755.61 644.204 754.482 643.748C753.354 643.292 752.406 642.644 751.638 641.804C750.87 640.964 750.282 639.956 749.874 638.78C749.466 637.58 749.262 636.236 749.262 634.748C749.262 633.26 749.466 631.916 749.874 630.716C750.306 629.516 750.894 628.496 751.638 627.656C752.406 626.792 753.33 626.132 754.41 625.676C755.49 625.22 756.69 624.992 758.01 624.992C759.306 624.992 760.482 625.22 761.538 625.676C762.594 626.108 763.494 626.732 764.238 627.548C764.982 628.364 765.546 629.336 765.93 630.464C766.338 631.592 766.542 632.84 766.542 634.208V635.684H753.222V636.296C753.222 637.76 753.678 638.96 754.59 639.896C755.502 640.808 756.762 641.264 758.37 641.264C759.57 641.264 760.59 641.012 761.43 640.508C762.294 639.98 762.99 639.284 763.518 638.42L765.966 640.58C765.342 641.66 764.382 642.572 763.086 643.316C761.814 644.06 760.218 644.432 758.298 644.432ZM758.01 627.98C757.314 627.98 756.666 628.1 756.066 628.34C755.49 628.58 754.986 628.928 754.554 629.384C754.146 629.816 753.822 630.332 753.582 630.932C753.342 631.532 753.222 632.192 753.222 632.912V633.164H762.546V632.804C762.546 631.34 762.126 630.176 761.286 629.312C760.47 628.424 759.378 627.98 758.01 627.98ZM783.52 640.832H783.304C782.752 641.96 782.02 642.848 781.108 643.496C780.196 644.12 779.056 644.432 777.688 644.432C775.504 644.432 773.764 643.616 772.468 641.984C771.172 640.352 770.524 637.928 770.524 634.712C770.524 631.496 771.172 629.072 772.468 627.44C773.764 625.808 775.504 624.992 777.688 624.992C779.056 624.992 780.196 625.316 781.108 625.964C782.02 626.588 782.752 627.464 783.304 628.592H783.52V617.36H787.444V644H783.52V640.832ZM779.308 641.228C779.884 641.228 780.424 641.156 780.928 641.012C781.432 640.868 781.876 640.652 782.26 640.364C782.644 640.076 782.944 639.728 783.16 639.32C783.4 638.888 783.52 638.384 783.52 637.808V631.616C783.52 631.04 783.4 630.548 783.16 630.14C782.944 629.708 782.644 629.348 782.26 629.06C781.876 628.772 781.432 628.556 780.928 628.412C780.424 628.268 779.884 628.196 779.308 628.196C777.82 628.196 776.668 628.652 775.852 629.564C775.06 630.476 774.664 631.688 774.664 633.2V636.224C774.664 637.736 775.06 638.948 775.852 639.86C776.668 640.772 777.82 641.228 779.308 641.228ZM814.847 648.968L826.979 616.64H830.471L818.339 648.968H814.847ZM836.505 639.752L848.421 633.164V632.876L836.505 626.324V622.472L851.985 631.148V634.892L836.505 643.568V639.752Z" fill="black"/>
<path d="M135.805 621.651V618.219L149.995 610.266V613.764L139.072 619.803V620.067L149.995 626.073V629.604L135.805 621.651ZM162.489 630.396C160.487 630.396 158.804 630.044 157.44 629.34C156.076 628.636 154.954 627.701 154.074 626.535L156.45 624.258C157.33 625.314 158.265 626.095 159.255 626.601C160.245 627.085 161.367 627.327 162.621 627.327C164.073 627.327 165.184 626.997 165.954 626.337C166.746 625.677 167.142 624.731 167.142 623.499C167.142 622.509 166.856 621.75 166.284 621.222C165.712 620.672 164.733 620.276 163.347 620.034L160.839 619.638C159.739 619.462 158.815 619.176 158.067 618.78C157.319 618.362 156.714 617.878 156.252 617.328C155.79 616.756 155.449 616.129 155.229 615.447C155.031 614.743 154.932 614.006 154.932 613.236C154.932 611.058 155.636 609.408 157.044 608.286C158.452 607.142 160.388 606.57 162.852 606.57C164.678 606.57 166.229 606.867 167.505 607.461C168.803 608.033 169.848 608.847 170.64 609.903L168.33 612.213C167.692 611.443 166.933 610.827 166.053 610.365C165.195 609.881 164.128 609.639 162.852 609.639C161.488 609.639 160.443 609.936 159.717 610.53C159.013 611.102 158.661 611.949 158.661 613.071C158.661 614.017 158.936 614.765 159.486 615.315C160.058 615.843 161.059 616.228 162.489 616.47L164.931 616.899C166.999 617.273 168.506 618.032 169.452 619.176C170.398 620.298 170.871 621.673 170.871 623.301C170.871 624.357 170.684 625.325 170.31 626.205C169.958 627.085 169.419 627.833 168.693 628.449C167.989 629.065 167.109 629.549 166.053 629.901C165.019 630.231 163.831 630.396 162.489 630.396ZM183.53 609.87C182.606 609.87 181.957 609.683 181.583 609.309C181.231 608.935 181.055 608.473 181.055 607.923V607.23C181.055 606.68 181.231 606.218 181.583 605.844C181.957 605.47 182.595 605.283 183.497 605.283C184.421 605.283 185.059 605.47 185.411 605.844C185.785 606.218 185.972 606.68 185.972 607.23V607.923C185.972 608.473 185.785 608.935 185.411 609.309C185.059 609.683 184.432 609.87 183.53 609.87ZM175.907 627.096H181.715V615.876H175.907V612.972H185.312V627.096H190.757V630H175.907V627.096ZM205.957 627.096H205.759C205.253 628.13 204.582 628.944 203.746 629.538C202.91 630.11 201.865 630.396 200.611 630.396C198.609 630.396 197.014 629.648 195.826 628.152C194.638 626.656 194.044 624.434 194.044 621.486C194.044 618.538 194.638 616.316 195.826 614.82C197.014 613.324 198.609 612.576 200.611 612.576C201.865 612.576 202.91 612.873 203.746 613.467C204.582 614.039 205.253 614.842 205.759 615.876H205.957V605.58H209.554V630H205.957V627.096ZM202.096 627.459C202.624 627.459 203.119 627.393 203.581 627.261C204.043 627.129 204.45 626.931 204.802 626.667C205.154 626.403 205.429 626.084 205.627 625.71C205.847 625.314 205.957 624.852 205.957 624.324V618.648C205.957 618.12 205.847 617.669 205.627 617.295C205.429 616.899 205.154 616.569 204.802 616.305C204.45 616.041 204.043 615.843 203.581 615.711C203.119 615.579 202.624 615.513 202.096 615.513C200.732 615.513 199.676 615.931 198.928 616.767C198.202 617.603 197.839 618.714 197.839 620.1V622.872C197.839 624.258 198.202 625.369 198.928 626.205C199.676 627.041 200.732 627.459 202.096 627.459ZM222.411 630.396C221.113 630.396 219.947 630.187 218.913 629.769C217.879 629.351 217.01 628.757 216.306 627.987C215.602 627.217 215.063 626.293 214.689 625.215C214.315 624.115 214.128 622.883 214.128 621.519C214.128 620.155 214.315 618.923 214.689 617.823C215.085 616.723 215.624 615.788 216.306 615.018C217.01 614.226 217.857 613.621 218.847 613.203C219.837 612.785 220.937 612.576 222.147 612.576C223.335 612.576 224.413 612.785 225.381 613.203C226.349 613.599 227.174 614.171 227.856 614.919C228.538 615.667 229.055 616.558 229.407 617.592C229.781 618.626 229.968 619.77 229.968 621.024V622.377H217.758V622.938C217.758 624.28 218.176 625.38 219.012 626.238C219.848 627.074 221.003 627.492 222.477 627.492C223.577 627.492 224.512 627.261 225.282 626.799C226.074 626.315 226.712 625.677 227.196 624.885L229.44 626.865C228.868 627.855 227.988 628.691 226.8 629.373C225.634 630.055 224.171 630.396 222.411 630.396ZM222.147 615.315C221.509 615.315 220.915 615.425 220.365 615.645C219.837 615.865 219.375 616.184 218.979 616.602C218.605 616.998 218.308 617.471 218.088 618.021C217.868 618.571 217.758 619.176 217.758 619.836V620.067H226.305V619.737C226.305 618.395 225.92 617.328 225.15 616.536C224.402 615.722 223.401 615.315 222.147 615.315ZM234.543 605.58H238.14V615.876H238.338C238.844 614.842 239.515 614.039 240.351 613.467C241.187 612.873 242.232 612.576 243.486 612.576C245.488 612.576 247.083 613.324 248.271 614.82C249.459 616.316 250.053 618.538 250.053 621.486C250.053 624.434 249.459 626.656 248.271 628.152C247.083 629.648 245.488 630.396 243.486 630.396C242.232 630.396 241.187 630.11 240.351 629.538C239.515 628.944 238.844 628.13 238.338 627.096H238.14V630H234.543V605.58ZM242.001 627.459C243.365 627.459 244.41 627.041 245.136 626.205C245.884 625.369 246.258 624.258 246.258 622.872V620.1C246.258 618.714 245.884 617.603 245.136 616.767C244.41 615.931 243.365 615.513 242.001 615.513C241.473 615.513 240.978 615.579 240.516 615.711C240.054 615.843 239.647 616.041 239.295 616.305C238.943 616.569 238.657 616.899 238.437 617.295C238.239 617.669 238.14 618.12 238.14 618.648V624.324C238.14 624.852 238.239 625.314 238.437 625.71C238.657 626.084 238.943 626.403 239.295 626.667C239.647 626.931 240.054 627.129 240.516 627.261C240.978 627.393 241.473 627.459 242.001 627.459ZM267.959 630C266.925 630 266.144 629.736 265.616 629.208C265.11 628.68 264.802 627.987 264.692 627.129H264.527C264.197 628.163 263.592 628.966 262.712 629.538C261.854 630.11 260.754 630.396 259.412 630.396C257.674 630.396 256.288 629.945 255.254 629.043C254.22 628.119 253.703 626.854 253.703 625.248C253.703 623.598 254.308 622.344 255.518 621.486C256.75 620.606 258.631 620.166 261.161 620.166H264.428V618.846C264.428 616.536 263.207 615.381 260.765 615.381C259.665 615.381 258.774 615.601 258.092 616.041C257.41 616.459 256.838 617.02 256.376 617.724L254.231 615.975C254.715 615.051 255.529 614.259 256.673 613.599C257.817 612.917 259.291 612.576 261.095 612.576C263.251 612.576 264.945 613.093 266.177 614.127C267.409 615.161 268.025 616.657 268.025 618.615V627.162H270.17V630H267.959ZM260.435 627.756C261.601 627.756 262.558 627.492 263.306 626.964C264.054 626.436 264.428 625.754 264.428 624.918V622.443H261.227C258.631 622.443 257.333 623.224 257.333 624.786V625.446C257.333 626.216 257.608 626.799 258.158 627.195C258.708 627.569 259.467 627.756 260.435 627.756ZM274.018 627.096H278.539V615.876H274.018V612.972H282.136V617.493H282.334C282.488 616.899 282.708 616.327 282.994 615.777C283.28 615.227 283.643 614.754 284.083 614.358C284.523 613.94 285.062 613.61 285.7 613.368C286.338 613.104 287.086 612.972 287.944 612.972H289.99V616.404H286.624C285.304 616.404 284.226 616.8 283.39 617.592C282.554 618.362 282.136 619.407 282.136 620.727V627.096H288.307V630H274.018V627.096ZM313.823 634.554L324.944 604.92H328.145L317.024 634.554H313.823ZM333.676 626.106L344.599 620.067V619.803L333.676 613.797V610.266L347.866 618.219V621.651L333.676 629.604V626.106Z" fill="black"/>
</svg>
