<svg width="1718" height="291" viewBox="0 0 1718 291" fill="none" xmlns="http://www.w3.org/2000/svg">
<rect width="1596" height="291" rx="29" fill="#FFEEEE"/>
<path d="M84.326 112.892V132.626C84.326 133.945 84.3567 135.141 84.418 136.214C84.51 137.287 84.74 138.207 85.108 138.974C85.476 139.71 86.028 140.277 86.764 140.676C87.5 141.075 88.512 141.274 89.8 141.274C91.088 141.274 92.1 141.075 92.836 140.676C93.572 140.277 94.124 139.71 94.492 138.974C94.86 138.207 95.0747 137.287 95.136 136.214C95.228 135.141 95.274 133.945 95.274 132.626V112.892H100.426V131.706C100.426 134.006 100.288 136.03 100.012 137.778C99.7667 139.495 99.2607 140.937 98.494 142.102C97.7273 143.237 96.6387 144.095 95.228 144.678C93.848 145.261 92.0387 145.552 89.8 145.552C87.5613 145.552 85.7367 145.261 84.326 144.678C82.946 144.095 81.8727 143.237 81.106 142.102C80.3393 140.937 79.818 139.495 79.542 137.778C79.2967 136.03 79.174 134.006 79.174 131.706V112.892H84.326ZM107.446 145V121.264H112.46V125.312H112.69C112.935 124.699 113.242 124.116 113.61 123.564C114.009 122.981 114.484 122.491 115.036 122.092C115.588 121.663 116.232 121.325 116.968 121.08C117.704 120.835 118.563 120.712 119.544 120.712C121.936 120.712 123.868 121.494 125.34 123.058C126.812 124.622 127.548 126.845 127.548 129.728V145H122.534V130.464C122.534 126.692 120.893 124.806 117.612 124.806C116.968 124.806 116.339 124.898 115.726 125.082C115.113 125.235 114.561 125.481 114.07 125.818C113.579 126.155 113.181 126.585 112.874 127.106C112.598 127.627 112.46 128.225 112.46 128.9V145H107.446ZM145.838 145.552C144.059 145.552 142.465 145.261 141.054 144.678C139.674 144.095 138.493 143.267 137.512 142.194C136.561 141.121 135.825 139.817 135.304 138.284C134.813 136.751 134.568 135.033 134.568 133.132C134.568 131.231 134.813 129.513 135.304 127.98C135.825 126.447 136.561 125.143 137.512 124.07C138.493 122.997 139.674 122.169 141.054 121.586C142.465 121.003 144.044 120.712 145.792 120.712C148.245 120.712 150.208 121.233 151.68 122.276C153.183 123.319 154.302 124.668 155.038 126.324L151.128 128.44C150.699 127.336 150.039 126.462 149.15 125.818C148.291 125.174 147.172 124.852 145.792 124.852C143.891 124.852 142.419 125.435 141.376 126.6C140.333 127.735 139.812 129.253 139.812 131.154V135.11C139.812 136.981 140.333 138.499 141.376 139.664C142.419 140.829 143.921 141.412 145.884 141.412C147.356 141.412 148.552 141.075 149.472 140.4C150.423 139.725 151.174 138.805 151.726 137.64L155.406 139.894C154.639 141.55 153.474 142.915 151.91 143.988C150.346 145.031 148.322 145.552 145.838 145.552ZM181.378 145C179.937 145 178.848 144.632 178.112 143.896C177.407 143.16 176.977 142.194 176.824 140.998H176.594C176.134 142.439 175.291 143.559 174.064 144.356C172.868 145.153 171.335 145.552 169.464 145.552C167.041 145.552 165.109 144.923 163.668 143.666C162.227 142.378 161.506 140.615 161.506 138.376C161.506 136.076 162.349 134.328 164.036 133.132C165.753 131.905 168.375 131.292 171.902 131.292H176.456V129.452C176.456 126.232 174.754 124.622 171.35 124.622C169.817 124.622 168.575 124.929 167.624 125.542C166.673 126.125 165.876 126.907 165.232 127.888L162.242 125.45C162.917 124.162 164.051 123.058 165.646 122.138C167.241 121.187 169.295 120.712 171.81 120.712C174.815 120.712 177.177 121.433 178.894 122.874C180.611 124.315 181.47 126.401 181.47 129.13V141.044H184.46V145H181.378ZM170.89 141.872C172.515 141.872 173.849 141.504 174.892 140.768C175.935 140.032 176.456 139.081 176.456 137.916V134.466H171.994C168.375 134.466 166.566 135.555 166.566 137.732V138.652C166.566 139.725 166.949 140.538 167.716 141.09C168.483 141.611 169.541 141.872 170.89 141.872ZM205.05 140.952H204.82C204.575 141.565 204.253 142.163 203.854 142.746C203.486 143.298 203.026 143.789 202.474 144.218C201.922 144.617 201.278 144.939 200.542 145.184C199.806 145.429 198.947 145.552 197.966 145.552C195.574 145.552 193.642 144.77 192.17 143.206C190.698 141.642 189.962 139.419 189.962 136.536V121.264H194.976V135.8C194.976 139.572 196.617 141.458 199.898 141.458C200.542 141.458 201.171 141.381 201.784 141.228C202.397 141.044 202.949 140.783 203.44 140.446C203.931 140.109 204.314 139.695 204.59 139.204C204.897 138.683 205.05 138.069 205.05 137.364V121.264H210.064V145H205.05V140.952ZM240.13 147.576C240.13 150.029 239.103 151.839 237.048 153.004C234.993 154.169 231.865 154.752 227.664 154.752C225.609 154.752 223.877 154.614 222.466 154.338C221.086 154.093 219.951 153.725 219.062 153.234C218.203 152.743 217.575 152.145 217.176 151.44C216.808 150.735 216.624 149.937 216.624 149.048C216.624 147.76 216.977 146.748 217.682 146.012C218.418 145.307 219.445 144.785 220.764 144.448V143.988C219.967 143.681 219.323 143.252 218.832 142.7C218.372 142.148 218.142 141.427 218.142 140.538C218.142 139.373 218.541 138.499 219.338 137.916C220.135 137.303 221.163 136.843 222.42 136.536V136.306C220.979 135.631 219.859 134.681 219.062 133.454C218.265 132.227 217.866 130.755 217.866 129.038C217.866 127.781 218.096 126.646 218.556 125.634C219.016 124.591 219.66 123.717 220.488 123.012C221.347 122.276 222.359 121.709 223.524 121.31C224.72 120.911 226.054 120.712 227.526 120.712C229.182 120.712 230.669 120.973 231.988 121.494V120.712C231.988 119.792 232.249 119.025 232.77 118.412C233.291 117.799 234.089 117.492 235.162 117.492H239.486V121.448H233.966V122.552C235.009 123.257 235.806 124.162 236.358 125.266C236.91 126.339 237.186 127.597 237.186 129.038C237.186 130.295 236.956 131.445 236.496 132.488C236.036 133.5 235.377 134.374 234.518 135.11C233.69 135.815 232.678 136.367 231.482 136.766C230.317 137.134 228.998 137.318 227.526 137.318C226.483 137.318 225.502 137.226 224.582 137.042C224.03 137.195 223.478 137.456 222.926 137.824C222.374 138.192 222.098 138.698 222.098 139.342C222.098 140.078 222.451 140.538 223.156 140.722C223.861 140.906 224.735 140.998 225.778 140.998H231.114C234.303 140.998 236.603 141.611 238.014 142.838C239.425 144.034 240.13 145.613 240.13 147.576ZM235.438 147.898C235.438 147.101 235.116 146.457 234.472 145.966C233.828 145.506 232.663 145.276 230.976 145.276H222.742C221.577 145.828 220.994 146.717 220.994 147.944C220.994 148.833 221.362 149.6 222.098 150.244C222.865 150.888 224.122 151.21 225.87 151.21H229.596C231.497 151.21 232.939 150.919 233.92 150.336C234.932 149.784 235.438 148.971 235.438 147.898ZM227.526 133.868C229.151 133.868 230.347 133.485 231.114 132.718C231.881 131.951 232.264 130.924 232.264 129.636V128.394C232.264 127.106 231.881 126.079 231.114 125.312C230.347 124.545 229.151 124.162 227.526 124.162C225.901 124.162 224.705 124.545 223.938 125.312C223.171 126.079 222.788 127.106 222.788 128.394V129.636C222.788 130.924 223.171 131.951 223.938 132.718C224.705 133.485 225.901 133.868 227.526 133.868ZM245.356 110.96H250.37V125.312H250.6C250.846 124.699 251.152 124.116 251.52 123.564C251.919 122.981 252.394 122.491 252.946 122.092C253.498 121.663 254.142 121.325 254.878 121.08C255.614 120.835 256.473 120.712 257.454 120.712C259.846 120.712 261.778 121.494 263.25 123.058C264.722 124.622 265.458 126.845 265.458 129.728V145H260.444V130.464C260.444 126.692 258.804 124.806 255.522 124.806C254.878 124.806 254.25 124.898 253.636 125.082C253.023 125.235 252.471 125.481 251.98 125.818C251.49 126.155 251.091 126.585 250.784 127.106C250.508 127.627 250.37 128.225 250.37 128.9V145H245.356V110.96ZM284.3 145C282.215 145 280.682 144.448 279.7 143.344C278.719 142.209 278.228 140.753 278.228 138.974V125.312H270.914V121.264H276.112C277.002 121.264 277.63 121.095 277.998 120.758C278.366 120.39 278.55 119.746 278.55 118.826V112.892H283.242V121.264H293.362V125.312H283.242V140.952H293.362V145H284.3ZM340.614 117.216V145H335.462V117.216H325.388V112.892H350.688V117.216H340.614ZM372.566 121.264H377.626L366.126 149.6C365.513 151.133 364.7 152.283 363.688 153.05C362.707 153.817 361.281 154.2 359.41 154.2H355.408V150.152H361.02L363.182 144.678L353.614 121.264H358.858L362.63 131.2L365.574 139.342H365.85L368.794 131.2L372.566 121.264ZM383.036 121.264H388.05V125.312H388.326C389.032 123.871 389.967 122.751 391.132 121.954C392.298 121.126 393.754 120.712 395.502 120.712C398.293 120.712 400.516 121.755 402.172 123.84C403.828 125.925 404.656 129.023 404.656 133.132C404.656 137.241 403.828 140.339 402.172 142.424C400.516 144.509 398.293 145.552 395.502 145.552C393.754 145.552 392.298 145.153 391.132 144.356C389.967 143.528 389.032 142.393 388.326 140.952H388.05V154.2H383.036V121.264ZM393.432 141.458C395.334 141.458 396.79 140.875 397.802 139.71C398.845 138.545 399.366 136.996 399.366 135.064V131.2C399.366 129.268 398.845 127.719 397.802 126.554C396.79 125.389 395.334 124.806 393.432 124.806C392.696 124.806 392.006 124.898 391.362 125.082C390.718 125.266 390.151 125.542 389.66 125.91C389.17 126.278 388.771 126.738 388.464 127.29C388.188 127.811 388.05 128.44 388.05 129.176V137.088C388.05 137.824 388.188 138.468 388.464 139.02C388.771 139.541 389.17 139.986 389.66 140.354C390.151 140.722 390.718 140.998 391.362 141.182C392.006 141.366 392.696 141.458 393.432 141.458ZM421.29 145.552C419.481 145.552 417.856 145.261 416.414 144.678C414.973 144.095 413.762 143.267 412.78 142.194C411.799 141.121 411.048 139.833 410.526 138.33C410.005 136.797 409.744 135.079 409.744 133.178C409.744 131.277 410.005 129.559 410.526 128.026C411.078 126.493 411.83 125.189 412.78 124.116C413.762 123.012 414.942 122.169 416.322 121.586C417.702 121.003 419.236 120.712 420.922 120.712C422.578 120.712 424.081 121.003 425.43 121.586C426.78 122.138 427.93 122.935 428.88 123.978C429.831 125.021 430.552 126.263 431.042 127.704C431.564 129.145 431.824 130.74 431.824 132.488V134.374H414.804V135.156C414.804 137.027 415.387 138.56 416.552 139.756C417.718 140.921 419.328 141.504 421.382 141.504C422.916 141.504 424.219 141.182 425.292 140.538C426.396 139.863 427.286 138.974 427.96 137.87L431.088 140.63C430.291 142.01 429.064 143.175 427.408 144.126C425.783 145.077 423.744 145.552 421.29 145.552ZM420.922 124.53C420.033 124.53 419.205 124.683 418.438 124.99C417.702 125.297 417.058 125.741 416.506 126.324C415.985 126.876 415.571 127.535 415.264 128.302C414.958 129.069 414.804 129.912 414.804 130.832V131.154H426.718V130.694C426.718 128.823 426.182 127.336 425.108 126.232C424.066 125.097 422.67 124.53 420.922 124.53ZM438.522 145V112.892H458.624V117.216H443.674V126.554H458.072V130.878H443.674V140.676H458.624V145H438.522ZM465.644 140.952H471.946V125.312H465.644V121.264H476.96V127.566H477.236C477.451 126.738 477.758 125.941 478.156 125.174C478.555 124.407 479.061 123.748 479.674 123.196C480.288 122.613 481.039 122.153 481.928 121.816C482.818 121.448 483.86 121.264 485.056 121.264H487.908V126.048H483.216C481.376 126.048 479.874 126.6 478.708 127.704C477.543 128.777 476.96 130.234 476.96 132.074V140.952H485.562V145H465.644V140.952ZM493.226 140.952H499.528V125.312H493.226V121.264H504.542V127.566H504.818C505.033 126.738 505.34 125.941 505.738 125.174C506.137 124.407 506.643 123.748 507.256 123.196C507.87 122.613 508.621 122.153 509.51 121.816C510.4 121.448 511.442 121.264 512.638 121.264H515.49V126.048H510.798C508.958 126.048 507.456 126.6 506.29 127.704C505.125 128.777 504.542 130.234 504.542 132.074V140.952H513.144V145H493.226V140.952ZM531.113 145.552C529.365 145.552 527.785 145.261 526.375 144.678C524.995 144.095 523.814 143.267 522.833 142.194C521.882 141.121 521.146 139.817 520.625 138.284C520.103 136.751 519.843 135.033 519.843 133.132C519.843 131.231 520.103 129.513 520.625 127.98C521.146 126.447 521.882 125.143 522.833 124.07C523.814 122.997 524.995 122.169 526.375 121.586C527.785 121.003 529.365 120.712 531.113 120.712C532.861 120.712 534.425 121.003 535.805 121.586C537.215 122.169 538.396 122.997 539.347 124.07C540.328 125.143 541.079 126.447 541.6 127.98C542.122 129.513 542.383 131.231 542.383 133.132C542.383 135.033 542.122 136.751 541.6 138.284C541.079 139.817 540.328 141.121 539.347 142.194C538.396 143.267 537.215 144.095 535.805 144.678C534.425 145.261 532.861 145.552 531.113 145.552ZM531.113 141.596C532.953 141.596 534.409 141.044 535.483 139.94C536.587 138.805 537.139 137.134 537.139 134.926V131.338C537.139 129.13 536.587 127.474 535.483 126.37C534.409 125.235 532.953 124.668 531.113 124.668C529.273 124.668 527.801 125.235 526.697 126.37C525.623 127.474 525.087 129.13 525.087 131.338V134.926C525.087 137.134 525.623 138.805 526.697 139.94C527.801 141.044 529.273 141.596 531.113 141.596ZM548.391 140.952H554.693V125.312H548.391V121.264H559.707V127.566H559.983C560.197 126.738 560.504 125.941 560.903 125.174C561.301 124.407 561.807 123.748 562.421 123.196C563.034 122.613 563.785 122.153 564.675 121.816C565.564 121.448 566.607 121.264 567.803 121.264H570.655V126.048H565.963C564.123 126.048 562.62 126.6 561.455 127.704C560.289 128.777 559.707 130.234 559.707 132.074V140.952H568.309V145H548.391V140.952ZM586.277 145.46C584.805 145.46 583.762 145.153 583.149 144.54C582.566 143.927 582.275 143.175 582.275 142.286V141.09C582.275 140.201 582.566 139.449 583.149 138.836C583.762 138.223 584.805 137.916 586.277 137.916C587.749 137.916 588.776 138.223 589.359 138.836C589.972 139.449 590.279 140.201 590.279 141.09V142.286C590.279 143.175 589.972 143.927 589.359 144.54C588.776 145.153 587.749 145.46 586.277 145.46ZM586.277 128.348C584.805 128.348 583.762 128.041 583.149 127.428C582.566 126.815 582.275 126.063 582.275 125.174V123.978C582.275 123.089 582.566 122.337 583.149 121.724C583.762 121.111 584.805 120.804 586.277 120.804C587.749 120.804 588.776 121.111 589.359 121.724C589.972 122.337 590.279 123.089 590.279 123.978V125.174C590.279 126.063 589.972 126.815 589.359 127.428C588.776 128.041 587.749 128.348 586.277 128.348ZM646.363 140.952H646.133C645.887 141.565 645.565 142.163 645.167 142.746C644.799 143.298 644.339 143.789 643.787 144.218C643.235 144.617 642.591 144.939 641.855 145.184C641.119 145.429 640.26 145.552 639.279 145.552C636.887 145.552 634.955 144.77 633.483 143.206C632.011 141.642 631.275 139.419 631.275 136.536V121.264H636.289V135.8C636.289 139.572 637.929 141.458 641.211 141.458C641.855 141.458 642.483 141.381 643.097 141.228C643.71 141.044 644.262 140.783 644.753 140.446C645.243 140.109 645.627 139.695 645.903 139.204C646.209 138.683 646.363 138.069 646.363 137.364V121.264H651.377V145H646.363V140.952ZM659.087 145V121.264H664.101V125.312H664.331C664.576 124.699 664.883 124.116 665.251 123.564C665.649 122.981 666.125 122.491 666.677 122.092C667.229 121.663 667.873 121.325 668.609 121.08C669.345 120.835 670.203 120.712 671.185 120.712C673.577 120.712 675.509 121.494 676.981 123.058C678.453 124.622 679.189 126.845 679.189 129.728V145H674.175V130.464C674.175 126.692 672.534 124.806 669.253 124.806C668.609 124.806 667.98 124.898 667.367 125.082C666.753 125.235 666.201 125.481 665.711 125.818C665.22 126.155 664.821 126.585 664.515 127.106C664.239 127.627 664.101 128.225 664.101 128.9V145H659.087ZM701.757 140.952H701.481C700.775 142.393 699.84 143.528 698.675 144.356C697.509 145.153 696.053 145.552 694.305 145.552C691.514 145.552 689.291 144.509 687.635 142.424C685.979 140.339 685.151 137.241 685.151 133.132C685.151 129.023 685.979 125.925 687.635 123.84C689.291 121.755 691.514 120.712 694.305 120.712C696.053 120.712 697.509 121.126 698.675 121.954C699.84 122.751 700.775 123.871 701.481 125.312H701.757V110.96H706.771V145H701.757V140.952ZM696.375 141.458C697.111 141.458 697.801 141.366 698.445 141.182C699.089 140.998 699.656 140.722 700.147 140.354C700.637 139.986 701.021 139.541 701.297 139.02C701.603 138.468 701.757 137.824 701.757 137.088V129.176C701.757 128.44 701.603 127.811 701.297 127.29C701.021 126.738 700.637 126.278 700.147 125.91C699.656 125.542 699.089 125.266 698.445 125.082C697.801 124.898 697.111 124.806 696.375 124.806C694.473 124.806 693.001 125.389 691.959 126.554C690.947 127.719 690.441 129.268 690.441 131.2V135.064C690.441 136.996 690.947 138.545 691.959 139.71C693.001 140.875 694.473 141.458 696.375 141.458ZM724.693 145.552C722.883 145.552 721.258 145.261 719.817 144.678C718.375 144.095 717.164 143.267 716.183 142.194C715.201 141.121 714.45 139.833 713.929 138.33C713.407 136.797 713.147 135.079 713.147 133.178C713.147 131.277 713.407 129.559 713.929 128.026C714.481 126.493 715.232 125.189 716.183 124.116C717.164 123.012 718.345 122.169 719.725 121.586C721.105 121.003 722.638 120.712 724.325 120.712C725.981 120.712 727.483 121.003 728.833 121.586C730.182 122.138 731.332 122.935 732.283 123.978C733.233 125.021 733.954 126.263 734.445 127.704C734.966 129.145 735.227 130.74 735.227 132.488V134.374H718.207V135.156C718.207 137.027 718.789 138.56 719.955 139.756C721.12 140.921 722.73 141.504 724.785 141.504C726.318 141.504 727.621 141.182 728.695 140.538C729.799 139.863 730.688 138.974 731.363 137.87L734.491 140.63C733.693 142.01 732.467 143.175 730.811 144.126C729.185 145.077 727.146 145.552 724.693 145.552ZM724.325 124.53C723.435 124.53 722.607 124.683 721.841 124.99C721.105 125.297 720.461 125.741 719.909 126.324C719.387 126.876 718.973 127.535 718.667 128.302C718.36 129.069 718.207 129.912 718.207 130.832V131.154H730.121V130.694C730.121 128.823 729.584 127.336 728.511 126.232C727.468 125.097 726.073 124.53 724.325 124.53ZM741.557 140.952H749.147V125.312H741.097V121.264H749.147V116.986C749.147 115.207 749.637 113.766 750.619 112.662C751.6 111.527 753.133 110.96 755.219 110.96H763.223V115.008H754.161V121.264H763.223V125.312H754.161V140.952H762.165V145H741.557V140.952ZM780.823 116.94C779.535 116.94 778.63 116.679 778.109 116.158C777.618 115.637 777.373 114.993 777.373 114.226V113.26C777.373 112.493 777.618 111.849 778.109 111.328C778.63 110.807 779.519 110.546 780.777 110.546C782.065 110.546 782.954 110.807 783.445 111.328C783.966 111.849 784.227 112.493 784.227 113.26V114.226C784.227 114.993 783.966 115.637 783.445 116.158C782.954 116.679 782.08 116.94 780.823 116.94ZM770.197 140.952H778.293V125.312H770.197V121.264H783.307V140.952H790.897V145H770.197V140.952ZM796.997 145V121.264H802.011V125.312H802.241C802.486 124.699 802.793 124.116 803.161 123.564C803.559 122.981 804.035 122.491 804.587 122.092C805.139 121.663 805.783 121.325 806.519 121.08C807.255 120.835 808.113 120.712 809.095 120.712C811.487 120.712 813.419 121.494 814.891 123.058C816.363 124.622 817.099 126.845 817.099 129.728V145H812.085V130.464C812.085 126.692 810.444 124.806 807.163 124.806C806.519 124.806 805.89 124.898 805.277 125.082C804.663 125.235 804.111 125.481 803.621 125.818C803.13 126.155 802.731 126.585 802.425 127.106C802.149 127.627 802.011 128.225 802.011 128.9V145H796.997ZM835.021 145.552C833.212 145.552 831.586 145.261 830.145 144.678C828.704 144.095 827.492 143.267 826.511 142.194C825.53 141.121 824.778 139.833 824.257 138.33C823.736 136.797 823.475 135.079 823.475 133.178C823.475 131.277 823.736 129.559 824.257 128.026C824.809 126.493 825.56 125.189 826.511 124.116C827.492 123.012 828.673 122.169 830.053 121.586C831.433 121.003 832.966 120.712 834.653 120.712C836.309 120.712 837.812 121.003 839.161 121.586C840.51 122.138 841.66 122.935 842.611 123.978C843.562 125.021 844.282 126.263 844.773 127.704C845.294 129.145 845.555 130.74 845.555 132.488V134.374H828.535V135.156C828.535 137.027 829.118 138.56 830.283 139.756C831.448 140.921 833.058 141.504 835.113 141.504C836.646 141.504 837.95 141.182 839.023 140.538C840.127 139.863 841.016 138.974 841.691 137.87L844.819 140.63C844.022 142.01 842.795 143.175 841.139 144.126C839.514 145.077 837.474 145.552 835.021 145.552ZM834.653 124.53C833.764 124.53 832.936 124.683 832.169 124.99C831.433 125.297 830.789 125.741 830.237 126.324C829.716 126.876 829.302 127.535 828.995 128.302C828.688 129.069 828.535 129.912 828.535 130.832V131.154H840.449V130.694C840.449 128.823 839.912 127.336 838.839 126.232C837.796 125.097 836.401 124.53 834.653 124.53ZM867.249 140.952H866.973C866.268 142.393 865.332 143.528 864.167 144.356C863.002 145.153 861.545 145.552 859.797 145.552C857.006 145.552 854.783 144.509 853.127 142.424C851.471 140.339 850.643 137.241 850.643 133.132C850.643 129.023 851.471 125.925 853.127 123.84C854.783 121.755 857.006 120.712 859.797 120.712C861.545 120.712 863.002 121.126 864.167 121.954C865.332 122.751 866.268 123.871 866.973 125.312H867.249V110.96H872.263V145H867.249V140.952ZM861.867 141.458C862.603 141.458 863.293 141.366 863.937 141.182C864.581 140.998 865.148 140.722 865.639 140.354C866.13 139.986 866.513 139.541 866.789 139.02C867.096 138.468 867.249 137.824 867.249 137.088V129.176C867.249 128.44 867.096 127.811 866.789 127.29C866.513 126.738 866.13 126.278 865.639 125.91C865.148 125.542 864.581 125.266 863.937 125.082C863.293 124.898 862.603 124.806 861.867 124.806C859.966 124.806 858.494 125.389 857.451 126.554C856.439 127.719 855.933 129.268 855.933 131.2V135.064C855.933 136.996 856.439 138.545 857.451 139.71C858.494 140.875 859.966 141.458 861.867 141.458ZM917.307 145.552C914.731 145.552 912.508 145.138 910.637 144.31C908.797 143.482 907.31 142.378 906.175 140.998L909.257 138.238C910.3 139.373 911.465 140.247 912.753 140.86C914.072 141.443 915.62 141.734 917.399 141.734C919.024 141.734 920.328 141.458 921.309 140.906C922.321 140.354 922.827 139.495 922.827 138.33C922.827 137.839 922.735 137.425 922.551 137.088C922.367 136.751 922.106 136.475 921.769 136.26C921.432 136.045 921.033 135.877 920.573 135.754C920.144 135.631 919.684 135.539 919.193 135.478L915.421 134.88C914.501 134.757 913.566 134.558 912.615 134.282C911.664 134.006 910.806 133.623 910.039 133.132C909.303 132.611 908.69 131.951 908.199 131.154C907.739 130.357 907.509 129.345 907.509 128.118C907.509 125.695 908.429 123.855 910.269 122.598C912.14 121.341 914.593 120.712 917.629 120.712C919.837 120.712 921.738 121.049 923.333 121.724C924.958 122.368 926.308 123.273 927.381 124.438L924.575 127.382C923.962 126.677 923.088 126.033 921.953 125.45C920.818 124.837 919.316 124.53 917.445 124.53C914.102 124.53 912.431 125.588 912.431 127.704C912.431 128.716 912.784 129.421 913.489 129.82C914.225 130.188 915.084 130.433 916.065 130.556L919.837 131.154C920.788 131.307 921.723 131.507 922.643 131.752C923.594 131.997 924.437 132.381 925.173 132.902C925.94 133.393 926.553 134.037 927.013 134.834C927.504 135.631 927.749 136.643 927.749 137.87C927.749 140.262 926.814 142.148 924.943 143.528C923.103 144.877 920.558 145.552 917.307 145.552ZM946.269 145C944.184 145 942.65 144.448 941.669 143.344C940.688 142.209 940.197 140.753 940.197 138.974V125.312H932.883V121.264H938.081C938.97 121.264 939.599 121.095 939.967 120.758C940.335 120.39 940.519 119.746 940.519 118.826V112.892H945.211V121.264H955.331V125.312H945.211V140.952H955.331V145H946.269ZM973.897 116.94C972.609 116.94 971.704 116.679 971.183 116.158C970.692 115.637 970.447 114.993 970.447 114.226V113.26C970.447 112.493 970.692 111.849 971.183 111.328C971.704 110.807 972.594 110.546 973.851 110.546C975.139 110.546 976.028 110.807 976.519 111.328C977.04 111.849 977.301 112.493 977.301 113.26V114.226C977.301 114.993 977.04 115.637 976.519 116.158C976.028 116.679 975.154 116.94 973.897 116.94ZM963.271 140.952H971.367V125.312H963.271V121.264H976.381V140.952H983.971V145H963.271V140.952ZM989.657 140.952H997.523V115.008H989.657V110.96H1002.54V140.952H1010.4V145H989.657V140.952ZM1017.24 140.952H1025.11V115.008H1017.24V110.96H1030.12V140.952H1037.99V145H1017.24V140.952ZM1084.23 116.94C1082.94 116.94 1082.03 116.679 1081.51 116.158C1081.02 115.637 1080.78 114.993 1080.78 114.226V113.26C1080.78 112.493 1081.02 111.849 1081.51 111.328C1082.03 110.807 1082.92 110.546 1084.18 110.546C1085.47 110.546 1086.36 110.807 1086.85 111.328C1087.37 111.849 1087.63 112.493 1087.63 113.26V114.226C1087.63 114.993 1087.37 115.637 1086.85 116.158C1086.36 116.679 1085.48 116.94 1084.23 116.94ZM1073.6 140.952H1081.7V125.312H1073.6V121.264H1086.71V140.952H1094.3V145H1073.6V140.952ZM1110.38 145.552C1107.81 145.552 1105.58 145.138 1103.71 144.31C1101.87 143.482 1100.38 142.378 1099.25 140.998L1102.33 138.238C1103.37 139.373 1104.54 140.247 1105.83 140.86C1107.15 141.443 1108.69 141.734 1110.47 141.734C1112.1 141.734 1113.4 141.458 1114.38 140.906C1115.4 140.354 1115.9 139.495 1115.9 138.33C1115.9 137.839 1115.81 137.425 1115.63 137.088C1115.44 136.751 1115.18 136.475 1114.84 136.26C1114.51 136.045 1114.11 135.877 1113.65 135.754C1113.22 135.631 1112.76 135.539 1112.27 135.478L1108.5 134.88C1107.58 134.757 1106.64 134.558 1105.69 134.282C1104.74 134.006 1103.88 133.623 1103.11 133.132C1102.38 132.611 1101.76 131.951 1101.27 131.154C1100.81 130.357 1100.58 129.345 1100.58 128.118C1100.58 125.695 1101.5 123.855 1103.34 122.598C1105.21 121.341 1107.67 120.712 1110.7 120.712C1112.91 120.712 1114.81 121.049 1116.41 121.724C1118.03 122.368 1119.38 123.273 1120.46 124.438L1117.65 127.382C1117.04 126.677 1116.16 126.033 1115.03 125.45C1113.89 124.837 1112.39 124.53 1110.52 124.53C1107.18 124.53 1105.51 125.588 1105.51 127.704C1105.51 128.716 1105.86 129.421 1106.56 129.82C1107.3 130.188 1108.16 130.433 1109.14 130.556L1112.91 131.154C1113.86 131.307 1114.8 131.507 1115.72 131.752C1116.67 131.997 1117.51 132.381 1118.25 132.902C1119.01 133.393 1119.63 134.037 1120.09 134.834C1120.58 135.631 1120.82 136.643 1120.82 137.87C1120.82 140.262 1119.89 142.148 1118.02 143.528C1116.18 144.877 1113.63 145.552 1110.38 145.552ZM1127.98 145V121.264H1133V125.312H1133.23C1133.47 124.699 1133.78 124.116 1134.15 123.564C1134.54 122.981 1135.02 122.491 1135.57 122.092C1136.12 121.663 1136.77 121.325 1137.5 121.08C1138.24 120.835 1139.1 120.712 1140.08 120.712C1142.47 120.712 1144.4 121.494 1145.88 123.058C1147.35 124.622 1148.08 126.845 1148.08 129.728V145H1143.07V130.464C1143.07 126.692 1141.43 124.806 1138.15 124.806C1137.5 124.806 1136.87 124.898 1136.26 125.082C1135.65 125.235 1135.1 125.481 1134.61 125.818C1134.11 126.155 1133.72 126.585 1133.41 127.106C1133.13 127.627 1133 128.225 1133 128.9V145H1127.98ZM1163.84 110.96H1170.97L1165.22 124.668H1161.36L1163.84 110.96ZM1194.51 145C1192.42 145 1190.89 144.448 1189.91 143.344C1188.93 142.209 1188.44 140.753 1188.44 138.974V125.312H1181.12V121.264H1186.32C1187.21 121.264 1187.84 121.095 1188.21 120.758C1188.57 120.39 1188.76 119.746 1188.76 118.826V112.892H1193.45V121.264H1203.57V125.312H1193.45V140.952H1203.57V145H1194.51ZM1257.08 145C1255.64 145 1254.55 144.632 1253.81 143.896C1253.11 143.16 1252.68 142.194 1252.52 140.998H1252.29C1251.83 142.439 1250.99 143.559 1249.76 144.356C1248.57 145.153 1247.03 145.552 1245.16 145.552C1242.74 145.552 1240.81 144.923 1239.37 143.666C1237.93 142.378 1237.21 140.615 1237.21 138.376C1237.21 136.076 1238.05 134.328 1239.74 133.132C1241.45 131.905 1244.07 131.292 1247.6 131.292H1252.16V129.452C1252.16 126.232 1250.45 124.622 1247.05 124.622C1245.52 124.622 1244.27 124.929 1243.32 125.542C1242.37 126.125 1241.58 126.907 1240.93 127.888L1237.94 125.45C1238.62 124.162 1239.75 123.058 1241.35 122.138C1242.94 121.187 1244.99 120.712 1247.51 120.712C1250.51 120.712 1252.88 121.433 1254.59 122.874C1256.31 124.315 1257.17 126.401 1257.17 129.13V141.044H1260.16V145H1257.08ZM1246.59 141.872C1248.21 141.872 1249.55 141.504 1250.59 140.768C1251.63 140.032 1252.16 139.081 1252.16 137.916V134.466H1247.69C1244.07 134.466 1242.27 135.555 1242.27 137.732V138.652C1242.27 139.725 1242.65 140.538 1243.42 141.09C1244.18 141.611 1245.24 141.872 1246.59 141.872ZM1293.2 140.952H1300.79V125.312H1292.74V121.264H1300.79V116.986C1300.79 115.207 1301.28 113.766 1302.26 112.662C1303.24 111.527 1304.77 110.96 1306.86 110.96H1314.86V115.008H1305.8V121.264H1314.86V125.312H1305.8V140.952H1313.81V145H1293.2V140.952ZM1335.91 140.952H1335.68C1335.44 141.565 1335.12 142.163 1334.72 142.746C1334.35 143.298 1333.89 143.789 1333.34 144.218C1332.79 144.617 1332.14 144.939 1331.41 145.184C1330.67 145.429 1329.81 145.552 1328.83 145.552C1326.44 145.552 1324.51 144.77 1323.03 143.206C1321.56 141.642 1320.83 139.419 1320.83 136.536V121.264H1325.84V135.8C1325.84 139.572 1327.48 141.458 1330.76 141.458C1331.41 141.458 1332.03 141.381 1332.65 141.228C1333.26 141.044 1333.81 140.783 1334.3 140.446C1334.79 140.109 1335.18 139.695 1335.45 139.204C1335.76 138.683 1335.91 138.069 1335.91 137.364V121.264H1340.93V145H1335.91V140.952ZM1348.64 145V121.264H1353.65V125.312H1353.88C1354.13 124.699 1354.43 124.116 1354.8 123.564C1355.2 122.981 1355.68 122.491 1356.23 122.092C1356.78 121.663 1357.42 121.325 1358.16 121.08C1358.9 120.835 1359.75 120.712 1360.74 120.712C1363.13 120.712 1365.06 121.494 1366.53 123.058C1368 124.622 1368.74 126.845 1368.74 129.728V145H1363.73V130.464C1363.73 126.692 1362.08 124.806 1358.8 124.806C1358.16 124.806 1357.53 124.898 1356.92 125.082C1356.3 125.235 1355.75 125.481 1355.26 125.818C1354.77 126.155 1354.37 126.585 1354.07 127.106C1353.79 127.627 1353.65 128.225 1353.65 128.9V145H1348.64ZM1387.03 145.552C1385.25 145.552 1383.66 145.261 1382.25 144.678C1380.87 144.095 1379.68 143.267 1378.7 142.194C1377.75 141.121 1377.02 139.817 1376.5 138.284C1376 136.751 1375.76 135.033 1375.76 133.132C1375.76 131.231 1376 129.513 1376.5 127.98C1377.02 126.447 1377.75 125.143 1378.7 124.07C1379.68 122.997 1380.87 122.169 1382.25 121.586C1383.66 121.003 1385.24 120.712 1386.98 120.712C1389.44 120.712 1391.4 121.233 1392.87 122.276C1394.37 123.319 1395.49 124.668 1396.23 126.324L1392.32 128.44C1391.89 127.336 1391.23 126.462 1390.34 125.818C1389.48 125.174 1388.36 124.852 1386.98 124.852C1385.08 124.852 1383.61 125.435 1382.57 126.6C1381.52 127.735 1381 129.253 1381 131.154V135.11C1381 136.981 1381.52 138.499 1382.57 139.664C1383.61 140.829 1385.11 141.412 1387.08 141.412C1388.55 141.412 1389.74 141.075 1390.66 140.4C1391.61 139.725 1392.37 138.805 1392.92 137.64L1396.6 139.894C1395.83 141.55 1394.67 142.915 1393.1 143.988C1391.54 145.031 1389.51 145.552 1387.03 145.552ZM1415.16 145C1413.08 145 1411.54 144.448 1410.56 143.344C1409.58 142.209 1409.09 140.753 1409.09 138.974V125.312H1401.78V121.264H1406.98C1407.86 121.264 1408.49 121.095 1408.86 120.758C1409.23 120.39 1409.41 119.746 1409.41 118.826V112.892H1414.11V121.264H1424.23V125.312H1414.11V140.952H1424.23V145H1415.16ZM1442.79 116.94C1441.5 116.94 1440.6 116.679 1440.08 116.158C1439.59 115.637 1439.34 114.993 1439.34 114.226V113.26C1439.34 112.493 1439.59 111.849 1440.08 111.328C1440.6 110.807 1441.49 110.546 1442.75 110.546C1444.03 110.546 1444.92 110.807 1445.41 111.328C1445.93 111.849 1446.2 112.493 1446.2 113.26V114.226C1446.2 114.993 1445.93 115.637 1445.41 116.158C1444.92 116.679 1444.05 116.94 1442.79 116.94ZM1432.17 140.952H1440.26V125.312H1432.17V121.264H1445.28V140.952H1452.87V145H1432.17V140.952ZM1468.9 145.552C1467.15 145.552 1465.57 145.261 1464.16 144.678C1462.78 144.095 1461.6 143.267 1460.62 142.194C1459.67 141.121 1458.93 139.817 1458.41 138.284C1457.89 136.751 1457.63 135.033 1457.63 133.132C1457.63 131.231 1457.89 129.513 1458.41 127.98C1458.93 126.447 1459.67 125.143 1460.62 124.07C1461.6 122.997 1462.78 122.169 1464.16 121.586C1465.57 121.003 1467.15 120.712 1468.9 120.712C1470.65 120.712 1472.21 121.003 1473.59 121.586C1475 122.169 1476.18 122.997 1477.14 124.07C1478.12 125.143 1478.87 126.447 1479.39 127.98C1479.91 129.513 1480.17 131.231 1480.17 133.132C1480.17 135.033 1479.91 136.751 1479.39 138.284C1478.87 139.817 1478.12 141.121 1477.14 142.194C1476.18 143.267 1475 144.095 1473.59 144.678C1472.21 145.261 1470.65 145.552 1468.9 145.552ZM1468.9 141.596C1470.74 141.596 1472.2 141.044 1473.27 139.94C1474.38 138.805 1474.93 137.134 1474.93 134.926V131.338C1474.93 129.13 1474.38 127.474 1473.27 126.37C1472.2 125.235 1470.74 124.668 1468.9 124.668C1467.06 124.668 1465.59 125.235 1464.49 126.37C1463.41 127.474 1462.88 129.13 1462.88 131.338V134.926C1462.88 137.134 1463.41 138.805 1464.49 139.94C1465.59 141.044 1467.06 141.596 1468.9 141.596ZM1486.55 145V121.264H1491.56V125.312H1491.79C1492.04 124.699 1492.34 124.116 1492.71 123.564C1493.11 122.981 1493.59 122.491 1494.14 122.092C1494.69 121.663 1495.33 121.325 1496.07 121.08C1496.81 120.835 1497.66 120.712 1498.65 120.712C1501.04 120.712 1502.97 121.494 1504.44 123.058C1505.91 124.622 1506.65 126.845 1506.65 129.728V145H1501.64V130.464C1501.64 126.692 1499.99 124.806 1496.71 124.806C1496.07 124.806 1495.44 124.898 1494.83 125.082C1494.21 125.235 1493.66 125.481 1493.17 125.818C1492.68 126.155 1492.28 126.585 1491.98 127.106C1491.7 127.627 1491.56 128.225 1491.56 128.9V145H1486.55ZM208.96 205C207.519 205 206.43 204.632 205.694 203.896C204.989 203.16 204.559 202.194 204.406 200.998H204.176C203.716 202.439 202.873 203.559 201.646 204.356C200.45 205.153 198.917 205.552 197.046 205.552C194.623 205.552 192.691 204.923 191.25 203.666C189.809 202.378 189.088 200.615 189.088 198.376C189.088 196.076 189.931 194.328 191.618 193.132C193.335 191.905 195.957 191.292 199.484 191.292H204.038V189.452C204.038 186.232 202.336 184.622 198.932 184.622C197.399 184.622 196.157 184.929 195.206 185.542C194.255 186.125 193.458 186.907 192.814 187.888L189.824 185.45C190.499 184.162 191.633 183.058 193.228 182.138C194.823 181.187 196.877 180.712 199.392 180.712C202.397 180.712 204.759 181.433 206.476 182.874C208.193 184.315 209.052 186.401 209.052 189.13V201.044H212.042V205H208.96ZM198.472 201.872C200.097 201.872 201.431 201.504 202.474 200.768C203.517 200.032 204.038 199.081 204.038 197.916V194.466H199.576C195.957 194.466 194.148 195.555 194.148 197.732V198.652C194.148 199.725 194.531 200.538 195.298 201.09C196.065 201.611 197.123 201.872 198.472 201.872ZM229.136 205C227.051 205 225.517 204.448 224.536 203.344C223.555 202.209 223.064 200.753 223.064 198.974V185.312H215.75V181.264H220.948C221.837 181.264 222.466 181.095 222.834 180.758C223.202 180.39 223.386 179.746 223.386 178.826V172.892H228.078V181.264H238.198V185.312H228.078V200.952H238.198V205H229.136ZM272.984 193.362V188.578L292.764 177.492V182.368L277.538 190.786V191.154L292.764 199.526V204.448L272.984 193.362ZM319.288 205C317.847 205 316.758 204.632 316.022 203.896C315.317 203.16 314.888 202.194 314.734 200.998H314.504C314.044 202.439 313.201 203.559 311.974 204.356C310.778 205.153 309.245 205.552 307.374 205.552C304.952 205.552 303.02 204.923 301.578 203.666C300.137 202.378 299.416 200.615 299.416 198.376C299.416 196.076 300.26 194.328 301.946 193.132C303.664 191.905 306.286 191.292 309.812 191.292H314.366V189.452C314.366 186.232 312.664 184.622 309.26 184.622C307.727 184.622 306.485 184.929 305.534 185.542C304.584 186.125 303.786 186.907 303.142 187.888L300.152 185.45C300.827 184.162 301.962 183.058 303.556 182.138C305.151 181.187 307.206 180.712 309.72 180.712C312.726 180.712 315.087 181.433 316.804 182.874C318.522 184.315 319.38 186.401 319.38 189.13V201.044H322.37V205H319.288ZM308.8 201.872C310.426 201.872 311.76 201.504 312.802 200.768C313.845 200.032 314.366 199.081 314.366 197.916V194.466H309.904C306.286 194.466 304.476 195.555 304.476 197.732V198.652C304.476 199.725 304.86 200.538 305.626 201.09C306.393 201.611 307.451 201.872 308.8 201.872ZM328.102 205V181.264H333.116V185.312H333.346C333.592 184.699 333.898 184.116 334.266 183.564C334.665 182.981 335.14 182.491 335.692 182.092C336.244 181.663 336.888 181.325 337.624 181.08C338.36 180.835 339.219 180.712 340.2 180.712C342.592 180.712 344.524 181.494 345.996 183.058C347.468 184.622 348.204 186.845 348.204 189.728V205H343.19V190.464C343.19 186.692 341.55 184.806 338.268 184.806C337.624 184.806 336.996 184.898 336.382 185.082C335.769 185.235 335.217 185.481 334.726 185.818C334.236 186.155 333.837 186.585 333.53 187.106C333.254 187.627 333.116 188.225 333.116 188.9V205H328.102ZM365.62 205.552C363.872 205.552 362.293 205.261 360.882 204.678C359.502 204.095 358.322 203.267 357.34 202.194C356.39 201.121 355.654 199.817 355.132 198.284C354.611 196.751 354.35 195.033 354.35 193.132C354.35 191.231 354.611 189.513 355.132 187.98C355.654 186.447 356.39 185.143 357.34 184.07C358.322 182.997 359.502 182.169 360.882 181.586C362.293 181.003 363.872 180.712 365.62 180.712C367.368 180.712 368.932 181.003 370.312 181.586C371.723 182.169 372.904 182.997 373.854 184.07C374.836 185.143 375.587 186.447 376.108 187.98C376.63 189.513 376.89 191.231 376.89 193.132C376.89 195.033 376.63 196.751 376.108 198.284C375.587 199.817 374.836 201.121 373.854 202.194C372.904 203.267 371.723 204.095 370.312 204.678C368.932 205.261 367.368 205.552 365.62 205.552ZM365.62 201.596C367.46 201.596 368.917 201.044 369.99 199.94C371.094 198.805 371.646 197.134 371.646 194.926V191.338C371.646 189.13 371.094 187.474 369.99 186.37C368.917 185.235 367.46 184.668 365.62 184.668C363.78 184.668 362.308 185.235 361.204 186.37C360.131 187.474 359.594 189.13 359.594 191.338V194.926C359.594 197.134 360.131 198.805 361.204 199.94C362.308 201.044 363.78 201.596 365.62 201.596ZM383.266 205V181.264H388.28V185.312H388.51C388.756 184.699 389.062 184.116 389.43 183.564C389.829 182.981 390.304 182.491 390.856 182.092C391.408 181.663 392.052 181.325 392.788 181.08C393.524 180.835 394.383 180.712 395.364 180.712C397.756 180.712 399.688 181.494 401.16 183.058C402.632 184.622 403.368 186.845 403.368 189.728V205H398.354V190.464C398.354 186.692 396.714 184.806 393.432 184.806C392.788 184.806 392.16 184.898 391.546 185.082C390.933 185.235 390.381 185.481 389.89 185.818C389.4 186.155 389.001 186.585 388.694 187.106C388.418 187.627 388.28 188.225 388.28 188.9V205H383.266ZM427.73 181.264H432.79L421.29 209.6C420.677 211.133 419.864 212.283 418.852 213.05C417.871 213.817 416.445 214.2 414.574 214.2H410.572V210.152H416.184L418.346 204.678L408.778 181.264H414.022L417.794 191.2L420.738 199.342H421.014L423.958 191.2L427.73 181.264ZM436.59 205V181.264H440.868V184.346H441.098C441.466 183.334 441.988 182.475 442.662 181.77C443.368 181.065 444.364 180.712 445.652 180.712C446.91 180.712 447.876 181.065 448.55 181.77C449.256 182.445 449.7 183.38 449.884 184.576H450.068C450.498 183.503 451.096 182.598 451.862 181.862C452.629 181.095 453.733 180.712 455.174 180.712C457.014 180.712 458.287 181.356 458.992 182.644C459.728 183.932 460.096 185.818 460.096 188.302V205H455.818V188.946C455.818 187.29 455.619 186.155 455.22 185.542C454.822 184.898 454.178 184.576 453.288 184.576C452.491 184.576 451.816 184.852 451.264 185.404C450.743 185.925 450.482 186.723 450.482 187.796V205H446.204V188.946C446.204 187.29 446.005 186.155 445.606 185.542C445.238 184.898 444.61 184.576 443.72 184.576C442.892 184.576 442.202 184.852 441.65 185.404C441.129 185.925 440.868 186.723 440.868 187.796V205H436.59ZM475.948 205.552C474.2 205.552 472.621 205.261 471.21 204.678C469.83 204.095 468.65 203.267 467.668 202.194C466.718 201.121 465.982 199.817 465.46 198.284C464.939 196.751 464.678 195.033 464.678 193.132C464.678 191.231 464.939 189.513 465.46 187.98C465.982 186.447 466.718 185.143 467.668 184.07C468.65 182.997 469.83 182.169 471.21 181.586C472.621 181.003 474.2 180.712 475.948 180.712C477.696 180.712 479.26 181.003 480.64 181.586C482.051 182.169 483.232 182.997 484.182 184.07C485.164 185.143 485.915 186.447 486.436 187.98C486.958 189.513 487.218 191.231 487.218 193.132C487.218 195.033 486.958 196.751 486.436 198.284C485.915 199.817 485.164 201.121 484.182 202.194C483.232 203.267 482.051 204.095 480.64 204.678C479.26 205.261 477.696 205.552 475.948 205.552ZM475.948 201.596C477.788 201.596 479.245 201.044 480.318 199.94C481.422 198.805 481.974 197.134 481.974 194.926V191.338C481.974 189.13 481.422 187.474 480.318 186.37C479.245 185.235 477.788 184.668 475.948 184.668C474.108 184.668 472.636 185.235 471.532 186.37C470.459 187.474 469.922 189.13 469.922 191.338V194.926C469.922 197.134 470.459 198.805 471.532 199.94C472.636 201.044 474.108 201.596 475.948 201.596ZM508.452 200.952H508.222C507.977 201.565 507.655 202.163 507.256 202.746C506.888 203.298 506.428 203.789 505.876 204.218C505.324 204.617 504.68 204.939 503.944 205.184C503.208 205.429 502.35 205.552 501.368 205.552C498.976 205.552 497.044 204.77 495.572 203.206C494.1 201.642 493.364 199.419 493.364 196.536V181.264H498.378V195.8C498.378 199.572 500.019 201.458 503.3 201.458C503.944 201.458 504.573 201.381 505.186 201.228C505.8 201.044 506.352 200.783 506.842 200.446C507.333 200.109 507.716 199.695 507.992 199.204C508.299 198.683 508.452 198.069 508.452 197.364V181.264H513.466V205H508.452V200.952ZM531.159 205.552C528.583 205.552 526.359 205.138 524.489 204.31C522.649 203.482 521.161 202.378 520.027 200.998L523.109 198.238C524.151 199.373 525.317 200.247 526.605 200.86C527.923 201.443 529.472 201.734 531.251 201.734C532.876 201.734 534.179 201.458 535.161 200.906C536.173 200.354 536.679 199.495 536.679 198.33C536.679 197.839 536.587 197.425 536.403 197.088C536.219 196.751 535.958 196.475 535.621 196.26C535.283 196.045 534.885 195.877 534.425 195.754C533.995 195.631 533.535 195.539 533.045 195.478L529.273 194.88C528.353 194.757 527.417 194.558 526.467 194.282C525.516 194.006 524.657 193.623 523.891 193.132C523.155 192.611 522.541 191.951 522.051 191.154C521.591 190.357 521.361 189.345 521.361 188.118C521.361 185.695 522.281 183.855 524.121 182.598C525.991 181.341 528.445 180.712 531.481 180.712C533.689 180.712 535.59 181.049 537.185 181.724C538.81 182.368 540.159 183.273 541.233 184.438L538.427 187.382C537.813 186.677 536.939 186.033 535.805 185.45C534.67 184.837 533.167 184.53 531.297 184.53C527.954 184.53 526.283 185.588 526.283 187.704C526.283 188.716 526.635 189.421 527.341 189.82C528.077 190.188 528.935 190.433 529.917 190.556L533.689 191.154C534.639 191.307 535.575 191.507 536.495 191.752C537.445 191.997 538.289 192.381 539.025 192.902C539.791 193.393 540.405 194.037 540.865 194.834C541.355 195.631 541.6 196.643 541.6 197.87C541.6 200.262 540.665 202.148 538.795 203.528C536.955 204.877 534.409 205.552 531.159 205.552ZM548.805 199.572L564.031 191.154V190.786L548.805 182.414V177.492L568.585 188.578V193.362L548.805 204.448V199.572ZM586.277 205.46C584.805 205.46 583.762 205.153 583.149 204.54C582.566 203.927 582.275 203.175 582.275 202.286V201.09C582.275 200.201 582.566 199.449 583.149 198.836C583.762 198.223 584.805 197.916 586.277 197.916C587.749 197.916 588.776 198.223 589.359 198.836C589.972 199.449 590.279 200.201 590.279 201.09V202.286C590.279 203.175 589.972 203.927 589.359 204.54C588.776 205.153 587.749 205.46 586.277 205.46ZM586.277 188.348C584.805 188.348 583.762 188.041 583.149 187.428C582.566 186.815 582.275 186.063 582.275 185.174V183.978C582.275 183.089 582.566 182.337 583.149 181.724C583.762 181.111 584.805 180.804 586.277 180.804C587.749 180.804 588.776 181.111 589.359 181.724C589.972 182.337 590.279 183.089 590.279 183.978V185.174C590.279 186.063 589.972 186.815 589.359 187.428C588.776 188.041 587.749 188.348 586.277 188.348ZM604.107 205V200.722H613.123V176.664H612.755L605.303 184.622L602.129 181.77L610.317 172.892H618.275V200.722H626.049V205H604.107ZM641.441 205.46C639.969 205.46 638.926 205.153 638.313 204.54C637.73 203.927 637.439 203.175 637.439 202.286V201.09C637.439 200.201 637.73 199.449 638.313 198.836C638.926 198.223 639.969 197.916 641.441 197.916C642.913 197.916 643.94 198.223 644.523 198.836C645.136 199.449 645.443 200.201 645.443 201.09V202.286C645.443 203.175 645.136 203.927 644.523 204.54C643.94 205.153 642.913 205.46 641.441 205.46ZM641.441 188.348C639.969 188.348 638.926 188.041 638.313 187.428C637.73 186.815 637.439 186.063 637.439 185.174V183.978C637.439 183.089 637.73 182.337 638.313 181.724C638.926 181.111 639.969 180.804 641.441 180.804C642.913 180.804 643.94 181.111 644.523 181.724C645.136 182.337 645.443 183.089 645.443 183.978V185.174C645.443 186.063 645.136 186.815 644.523 187.428C643.94 188.041 642.913 188.348 641.441 188.348ZM659.271 205V200.722H668.287V176.664H667.919L660.467 184.622L657.293 181.77L665.481 172.892H673.439V200.722H681.213V205H659.271Z" fill="#D51616" style="mix-blend-mode:darken"/>
</svg>
